<svg width="25" height="24" viewBox="0 0 25 24" fill="none" xmlns="http://www.w3.org/2000/svg">
<path d="M23.3071 1.70715C22.4391 0.864711 21.3948 0.443876 20.1741 0.444642H5.39466C4.1732 0.444642 3.12888 0.865477 2.2617 1.70715C1.39374 2.54958 0.96015 3.56319 0.960939 4.74796V19.0927C0.960939 20.2783 1.39453 21.2919 2.2617 22.1335C3.12967 22.976 4.17398 23.3968 5.39466 23.396H8.84363C9.06851 23.396 9.23777 23.3884 9.35139 23.3731C9.48372 23.3477 9.60316 23.2792 9.6899 23.1789C9.80273 23.064 9.85915 22.8975 9.85915 22.6792L9.85086 21.6625C9.84613 21.0146 9.84376 20.5015 9.84376 20.1232L9.48869 20.1829C9.2638 20.2227 8.97935 20.2403 8.63532 20.2358C8.27634 20.2291 7.9185 20.1941 7.56536 20.1312C7.18909 20.065 6.83496 19.9112 6.53327 19.6832C6.2166 19.4508 5.98043 19.1302 5.85626 18.7642L5.70239 18.4195C5.5722 18.1479 5.40931 17.8923 5.21712 17.6579C4.99618 17.3791 4.77288 17.19 4.54721 17.0904L4.44069 17.0157C4.36672 16.9637 4.2992 16.9036 4.23948 16.8365C4.18243 16.7742 4.13571 16.7037 4.101 16.6274C4.07022 16.557 4.09587 16.4995 4.17793 16.4551C4.25999 16.4092 4.40912 16.3866 4.62533 16.3874L4.93306 16.4333C5.13821 16.4724 5.3919 16.5915 5.6941 16.7906C5.99954 16.9927 6.25468 17.2584 6.44095 17.5683C6.67767 17.9757 6.96252 18.287 7.2955 18.5022C7.62927 18.7167 7.96541 18.8239 8.30392 18.8239C8.64242 18.8239 8.93516 18.799 9.18214 18.7492C9.42133 18.7011 9.65376 18.6255 9.87454 18.5241C9.96686 17.857 10.2182 17.3439 10.6285 16.9847C10.0964 16.9337 9.56897 16.8438 9.05076 16.7159C8.54506 16.5812 8.05876 16.3856 7.60323 16.1335C7.12653 15.8816 6.70549 15.5412 6.36402 15.1317C6.03577 14.7335 5.7663 14.2108 5.55562 13.5637C5.34574 12.9158 5.24079 12.1683 5.24079 11.3213C5.24079 10.1166 5.64597 9.09033 6.45634 8.24253C6.07759 7.33653 6.11349 6.32101 6.56404 5.19598C6.86231 5.10561 7.30378 5.17262 7.88848 5.39701C8.47317 5.62141 8.90163 5.81287 9.17385 5.9714C9.44608 6.13223 9.66425 6.26702 9.82838 6.37577C10.7905 6.1154 11.785 5.98474 12.7838 5.98749C13.8001 5.98749 14.7856 6.11691 15.7404 6.37577L16.3251 6.01735C16.7748 5.75528 17.2492 5.53526 17.7418 5.36025C18.2855 5.16113 18.7013 5.10637 18.9893 5.19598C19.4509 6.32178 19.4916 7.33768 19.1113 8.24368C19.9224 9.08995 20.328 10.1162 20.328 11.3224C20.328 12.1694 20.2226 12.9188 20.012 13.5706C19.8021 14.2231 19.5302 14.7461 19.1965 15.1398C18.848 15.5431 18.4254 15.88 17.9502 16.1335C17.453 16.4023 16.9705 16.5964 16.5026 16.7159C15.9844 16.8442 15.457 16.9344 14.9249 16.9859C15.4575 17.4339 15.7242 18.1408 15.725 19.1065V22.6792C15.725 22.8477 15.7507 22.9844 15.8019 23.0893C15.8259 23.1397 15.86 23.1849 15.9023 23.2222C15.9446 23.2595 15.9942 23.2881 16.0481 23.3064C16.161 23.3463 16.2612 23.3708 16.3488 23.3799C16.4363 23.3907 16.5618 23.3957 16.7251 23.3949H20.1741C21.3956 23.3949 22.4399 22.974 23.3071 22.1324C24.1742 21.2907 24.6078 20.2771 24.6078 19.0916V4.74796C24.6078 3.56242 24.175 2.54882 23.3071 1.70715Z" fill=""/>
</svg>
