<svg width="25" height="24" viewBox="0 0 25 24" fill="none" xmlns="http://www.w3.org/2000/svg">
<path d="M7.23199 0.444641H17.1741C20.9616 0.444641 24.0389 3.43146 24.0389 7.10754V16.7573C24.0389 18.5244 23.3157 20.2191 22.0283 21.4686C20.7409 22.7182 18.9948 23.4202 17.1741 23.4202H7.23199C3.44451 23.4202 0.367188 20.4333 0.367188 16.7573V7.10754C0.367188 5.34043 1.09044 3.6457 2.37784 2.39616C3.66524 1.14662 5.41133 0.444641 7.23199 0.444641ZM6.99528 2.74219C5.86521 2.74219 4.78143 3.17791 3.98236 3.95348C3.18328 4.72905 2.73436 5.78096 2.73436 6.87779V16.987C2.73436 19.2731 4.63994 21.1226 6.99528 21.1226H17.4108C18.5409 21.1226 19.6247 20.6869 20.4238 19.9113C21.2228 19.1357 21.6718 18.0838 21.6718 16.987V6.87779C21.6718 4.59172 19.7662 2.74219 17.4108 2.74219H6.99528ZM18.4169 4.46536C18.8093 4.46536 19.1856 4.61665 19.4631 4.88594C19.7405 5.15524 19.8964 5.52048 19.8964 5.90133C19.8964 6.28217 19.7405 6.64741 19.4631 6.91671C19.1856 7.18601 18.8093 7.3373 18.4169 7.3373C18.0245 7.3373 17.6482 7.18601 17.3707 6.91671C17.0933 6.64741 16.9374 6.28217 16.9374 5.90133C16.9374 5.52048 17.0933 5.15524 17.3707 4.88594C17.6482 4.61665 18.0245 4.46536 18.4169 4.46536ZM12.2031 6.18852C13.7726 6.18852 15.2778 6.79368 16.3877 7.87086C17.4975 8.94805 18.121 10.409 18.121 11.9324C18.121 13.4558 17.4975 14.9167 16.3877 15.9939C15.2778 17.0711 13.7726 17.6763 12.2031 17.6763C10.6335 17.6763 9.12828 17.0711 8.01845 15.9939C6.90862 14.9167 6.28512 13.4558 6.28512 11.9324C6.28512 10.409 6.90862 8.94805 8.01845 7.87086C9.12828 6.79368 10.6335 6.18852 12.2031 6.18852ZM12.2031 8.48607C11.2613 8.48607 10.3582 8.84917 9.69229 9.49548C9.0264 10.1418 8.6523 11.0184 8.6523 11.9324C8.6523 12.8464 9.0264 13.723 9.69229 14.3693C10.3582 15.0156 11.2613 15.3787 12.2031 15.3787C13.1448 15.3787 14.0479 15.0156 14.7138 14.3693C15.3797 13.723 15.7538 12.8464 15.7538 11.9324C15.7538 11.0184 15.3797 10.1418 14.7138 9.49548C14.0479 8.84917 13.1448 8.48607 12.2031 8.48607Z" fill="none"/>
</svg>
