<svg width="24" height="24" viewBox="0 0 24 24" fill="none" xmlns="http://www.w3.org/2000/svg">
<path d="M21.2342 0.631653C21.9204 0.631653 22.5785 0.896233 23.0637 1.36719C23.5489 1.83814 23.8215 2.4769 23.8215 3.14293V20.7219C23.8215 21.3879 23.5489 22.0267 23.0637 22.4976C22.5785 22.9686 21.9204 23.2331 21.2342 23.2331H3.12253C2.43632 23.2331 1.77821 22.9686 1.29298 22.4976C0.807754 22.0267 0.535156 21.3879 0.535156 20.7219V3.14293C0.535156 2.4769 0.807754 1.83814 1.29298 1.36719C1.77821 0.896233 2.43632 0.631653 3.12253 0.631653H21.2342ZM20.5873 20.0941V13.4392C20.5873 12.3535 20.143 11.3124 19.3521 10.5447C18.5611 9.77705 17.4884 9.34579 16.3699 9.34579C15.2703 9.34579 13.9895 9.99872 13.3685 10.9781V9.58436H9.75915V20.0941H13.3685V13.9038C13.3685 12.9369 14.1706 12.1459 15.1668 12.1459C15.6471 12.1459 16.1078 12.3311 16.4475 12.6607C16.7871 12.9904 16.9779 13.4375 16.9779 13.9038V20.0941H20.5873ZM5.55467 7.613C6.13109 7.613 6.6839 7.39076 7.09149 6.99515C7.49908 6.59955 7.72806 6.063 7.72806 5.50353C7.72806 4.33579 6.7578 3.3815 5.55467 3.3815C4.97482 3.3815 4.41871 3.60507 4.0087 4.00303C3.59868 4.40099 3.36833 4.94073 3.36833 5.50353C3.36833 6.67128 4.35154 7.613 5.55467 7.613ZM7.35289 20.0941V9.58436H3.76938V20.0941H7.35289Z" fill="none"/>
</svg>
