<svg width="122" height="25" viewBox="0 0 122 25" fill="none" xmlns="http://www.w3.org/2000/svg">
<path d="M28.9572 4.28711H28.3717C27.4958 4.28711 26.6495 4.4023 25.8559 4.62883C25.0675 4.85607 24.4239 5.11551 23.9431 5.40121C23.4688 5.68306 23.0196 6.01067 22.6069 6.37503C22.4293 6.532 22.2795 6.66844 22.1571 6.7862V4.30088H18.645V24.8812H22.1571V13.5399C22.1571 11.7655 22.728 10.3077 23.8536 9.20651C24.9813 8.10408 26.3604 7.54469 27.9528 7.54469H28.9572V4.28711V4.28711Z" fill="white"/>
<path d="M8.47704 4.35352C7.59402 4.35352 6.71613 4.48575 5.86848 4.74636C5.02222 5.00569 4.32593 5.30878 3.79841 5.64712C3.2794 5.97974 2.77954 6.35951 2.31247 6.77418C1.83793 7.19503 1.53507 7.48505 1.38603 7.66233C1.24563 7.83028 1.13511 7.96753 1.05458 8.07397L0.887338 8.297L3.11181 10.5215L3.94558 9.57998C4.31776 9.13578 4.9348 8.68855 5.77989 8.25066C6.61646 7.8172 7.52388 7.59721 8.47704 7.59721C9.7997 7.59721 10.8507 7.9988 11.6895 8.82569C12.4687 9.59375 12.8752 10.5566 12.928 11.7624L5.84187 12.9221C3.98223 13.2296 2.53118 13.9037 1.52854 14.9266C0.514218 15.9622 0 17.3347 0 19.0061C0 20.5471 0.694067 21.9291 2.06283 23.113C3.41724 24.2864 5.10485 24.8808 7.07875 24.8808C7.86934 24.8808 8.64743 24.7718 9.39157 24.5575C10.134 24.3432 10.7448 24.0932 11.2058 23.8152C11.6599 23.5414 12.0916 23.2227 12.4882 22.8661C12.6648 22.7076 12.8127 22.5705 12.9336 22.4539V24.8808H16.3521V12.0345C16.3521 9.8714 15.5978 8.0302 14.1113 6.56247C12.6248 5.0966 10.7291 4.35352 8.47704 4.35352ZM12.9336 14.8077V15.6271C12.9336 17.4081 12.3798 18.8747 11.2879 19.9853C10.1972 21.0941 8.78083 21.6566 7.07875 21.6566C5.91644 21.6566 5.00051 21.3961 4.35663 20.8816C3.72547 20.378 3.41852 19.7647 3.41852 19.0085C3.43043 17.3691 4.52037 16.3661 6.74835 15.9427L12.9336 14.8077Z" fill="white"/>
<path d="M65.5971 14.6584C65.5971 15.8429 64.6367 16.8032 63.4524 16.8032C62.2679 16.8032 61.3076 15.8429 61.3076 14.6584C61.3076 13.474 62.2679 12.5137 63.4524 12.5137C64.6369 12.5137 65.5971 13.474 65.5971 14.6584Z" fill="#00A550"/>
<path d="M98.3235 19.813C97.9155 20.1765 97.355 20.5448 96.6448 20.9129C95.6692 21.4197 94.5979 21.6761 93.4607 21.6761C91.7741 21.6761 90.2855 21.0702 89.0358 19.8751C87.8715 18.7624 87.1976 17.4428 87.0298 15.9479L102.766 15.9869V14.2224C102.766 11.3809 101.85 8.99463 100.045 7.1295C98.2371 5.26053 95.9558 4.3125 93.2659 4.3125C90.6666 4.3125 88.3751 5.326 86.4564 7.32499C84.5417 9.32025 83.5703 11.772 83.5703 14.6121C83.5703 17.4536 84.5516 19.9052 86.4865 21.9C88.4252 23.8984 90.7714 24.9117 93.4606 24.9117C94.4502 24.9117 95.4302 24.759 96.3743 24.4585C97.3105 24.1593 98.0874 23.8274 98.6827 23.4728C99.2735 23.1207 99.835 22.709 100.35 22.2476C100.426 22.1797 100.496 22.1158 100.564 22.0538L98.3235 19.813ZM89.1025 9.25302C90.2818 8.1346 91.683 7.56763 93.266 7.56763C94.8489 7.56763 96.2199 8.10823 97.3414 9.17448C98.3849 10.1671 99.0388 11.4212 99.2865 12.9066H87.0576C87.3234 11.5161 88.0105 10.2883 89.1025 9.25302Z" fill="white"/>
<path d="M117.137 20.849C116.192 21.3527 115.178 21.6076 114.123 21.6076C112.398 21.6076 110.878 20.9261 109.607 19.581C108.332 18.2315 107.684 16.5474 107.684 14.577C107.684 12.6066 108.332 10.9225 109.607 9.57296C110.878 8.22836 112.397 7.54678 114.123 7.54678C114.809 7.54678 115.474 7.65205 116.099 7.86061C116.729 8.06986 117.245 8.30865 117.634 8.56996C118.015 8.82637 118.375 9.13087 118.705 9.47434L121.1 7.07854C120.508 6.48332 119.613 5.88519 118.431 5.29756C117.105 4.63722 115.655 4.30273 114.123 4.30273C111.455 4.30273 109.12 5.31203 107.182 7.30309C105.247 9.29169 104.266 11.7357 104.266 14.5675C104.266 17.3993 105.244 19.8428 107.172 21.8307C109.104 23.8223 111.442 24.8324 114.123 24.8324C115.082 24.8324 116.04 24.6801 116.97 24.3801C117.891 24.0812 118.655 23.7503 119.241 23.3976C119.821 23.0488 120.384 22.6396 120.917 22.1816C120.973 22.1328 121.026 22.0866 121.078 22.0409L118.793 19.7552C118.377 20.117 117.824 20.4833 117.137 20.849Z" fill="white"/>
<path d="M55.3841 13.6292C54.3473 13.2708 53.2925 12.9469 52.2498 12.6653C51.2503 12.3957 50.3885 12.0316 49.689 11.5836C49.051 11.1748 48.7409 10.6563 48.7409 9.9979C48.7409 9.3497 49.0356 8.79148 49.6412 8.29127C50.2552 7.78475 51.0765 7.52764 52.0824 7.52764C52.8773 7.52764 53.6322 7.70352 54.3273 8.04933C55.2078 8.48839 55.5398 8.73348 55.6635 8.86139C55.6854 8.88427 55.7045 8.90539 55.7252 8.92757L58.154 6.49862C57.9941 6.36265 57.7925 6.20509 57.5364 6.01824C57.1624 5.74608 56.7312 5.47578 56.253 5.21435C55.7619 4.9465 55.1338 4.71986 54.3866 4.53896C53.6406 4.35759 52.8651 4.26562 52.0824 4.26562C50.1329 4.26562 48.4853 4.8382 47.1853 5.96782C45.8736 7.10679 45.2087 8.4626 45.2087 9.9979C45.2087 11.3 45.611 12.3831 46.4052 13.2159C47.1763 14.0255 48.1165 14.6252 49.1997 14.9995C50.2417 15.3585 51.2915 15.6893 52.3199 15.9816C53.3124 16.2639 54.1729 16.6494 54.8776 17.1281C55.527 17.5686 55.843 18.1173 55.843 18.8058C55.843 19.6369 55.52 20.3034 54.8551 20.8426C54.1812 21.3895 53.1817 21.6667 51.8829 21.6667C51.323 21.6667 50.7619 21.5741 50.2135 21.3908C49.6599 21.2063 49.2043 20.9934 48.8587 20.7584C48.5053 20.5171 48.168 20.2405 47.8565 19.9356C47.4679 19.5551 47.3172 19.3843 47.26 19.3081C47.22 19.2549 47.1853 19.2078 47.153 19.1633L44.6533 21.663L44.7197 21.7575C44.9205 22.0115 45.2191 22.3044 45.6323 22.6534C46.0332 22.9936 46.5134 23.3351 47.0597 23.669C47.6139 24.0085 48.3232 24.3033 49.1669 24.5446C50.0113 24.7866 50.9253 24.9095 51.8829 24.9095C54.1356 24.9095 55.9608 24.3273 57.3066 23.1799C58.6659 22.0209 59.3551 20.5492 59.3551 18.8059C59.3551 17.4679 58.9581 16.3477 58.1755 15.4783C57.4095 14.6259 56.4706 14.0041 55.3841 13.6292Z" fill="white"/>
<path d="M78.5156 13.6292C77.4786 13.2708 76.4238 12.9469 75.3813 12.6653C74.3818 12.3957 73.52 12.0316 72.8204 11.5836C72.1826 11.1748 71.8724 10.6563 71.8724 9.9979C71.8724 9.3497 72.1671 8.79148 72.7728 8.29127C73.3868 7.78475 74.2081 7.52764 75.214 7.52764C76.0089 7.52764 76.7638 7.70352 77.4588 8.04933C78.3392 8.48839 78.6714 8.73348 78.7949 8.86139C78.8168 8.88427 78.836 8.90539 78.8566 8.92757L81.2856 6.49862C81.1255 6.36265 80.924 6.20509 80.6678 6.01824C80.2939 5.74608 79.8628 5.47578 79.3845 5.21435C78.8934 4.9465 78.2651 4.71986 77.5181 4.53896C76.7721 4.35759 75.9965 4.26562 75.214 4.26562C73.2645 4.26562 71.6169 4.8382 70.3168 5.96782C69.0052 7.10679 68.3402 8.4626 68.3402 9.9979C68.3402 11.3 68.7425 12.3831 69.5367 13.2159C70.3077 14.0255 71.248 14.6252 72.3312 14.9995C73.3733 15.3585 74.423 15.6893 75.4514 15.9816C76.4438 16.2639 77.3043 16.6494 78.009 17.1281C78.6583 17.5686 78.9744 18.1173 78.9744 18.8058C78.9744 19.6369 78.6512 20.3034 77.9864 20.8426C77.3127 21.3895 76.3131 21.6667 75.0142 21.6667C74.4543 21.6667 73.8931 21.5741 73.3447 21.3908C72.7913 21.2063 72.3356 20.9934 71.9899 20.7584C71.6366 20.5171 71.2994 20.2405 70.9879 19.9356C70.5991 19.5551 70.4485 19.3843 70.3912 19.3081C70.3513 19.2549 70.3165 19.2078 70.2843 19.1633L67.7847 21.663L67.851 21.7575C68.0518 22.0115 68.3504 22.3044 68.7635 22.6534C69.1645 22.9936 69.6447 23.3351 70.191 23.669C70.7451 24.0085 71.4543 24.3033 72.2982 24.5446C73.1425 24.7866 74.0565 24.9095 75.0141 24.9095C77.2668 24.9095 79.0919 24.3273 80.4378 23.1799C81.797 22.0209 82.4864 20.5492 82.4864 18.8059C82.4864 17.4679 82.0893 16.3477 81.3067 15.4783C80.5408 14.6259 79.6019 14.0041 78.5156 13.6292Z" fill="white"/>
<path d="M40.5145 21.8654L40.5048 21.8647C38.5842 21.8566 37.0217 20.2875 37.0217 18.3673L37.0383 16.9558V7.63965H42.6107V4.29045H36.9856V0H33.5124V4.28999L30.8408 4.29045V7.63965H33.4921V16.9558L33.5124 18.4749C33.5124 21.2447 34.9329 23.4102 37.4092 24.4162C38.2897 24.7829 39.4053 24.9729 40.0692 24.9945C40.2123 24.9988 40.8133 25 41.2824 25C41.6049 25 41.8654 24.9995 41.8717 24.9995H42.6107V21.8654H40.5145V21.8654Z" fill="white"/>
</svg>
