<svg width="95" height="24" viewBox="0 0 95 24" fill="none" xmlns="http://www.w3.org/2000/svg">
<path d="M94.3571 18.9445C94.1564 19.273 93.8826 19.5468 93.5541 19.7475C93.2256 19.9483 92.8423 20.0395 92.4408 20.0395C92.0393 20.0395 91.6742 19.9483 91.3275 19.7475C90.999 19.5468 90.7252 19.273 90.5244 18.9445C90.3237 18.616 90.2324 18.2327 90.2324 17.8312C90.2324 17.4296 90.3237 17.0646 90.5244 16.7179C90.7252 16.3893 90.999 16.1156 91.3275 15.9148C91.656 15.7141 92.0393 15.6228 92.4408 15.6228C92.8423 15.6228 93.2073 15.7141 93.5541 15.9148C93.8826 16.1156 94.1564 16.3893 94.3571 16.7179C94.5579 17.0464 94.6491 17.4296 94.6491 17.8312C94.6491 18.2327 94.5396 18.5977 94.3571 18.9445ZM94.0469 16.8821C93.8826 16.5901 93.6636 16.3711 93.3716 16.2068C93.0978 16.0426 92.7693 15.9696 92.4408 15.9696C92.094 15.9696 91.7838 16.0426 91.51 16.2068C91.2362 16.3711 90.999 16.5901 90.8347 16.8821C90.6704 17.1741 90.5792 17.4844 90.5792 17.8129C90.5792 18.1414 90.6704 18.4517 90.8347 18.7437C90.999 19.0357 91.218 19.2547 91.51 19.419C91.7838 19.5833 92.094 19.6745 92.4408 19.6745C92.7876 19.6745 93.0978 19.5833 93.3716 19.419C93.6453 19.2547 93.8826 19.0175 94.0469 18.7437C94.2111 18.4517 94.3024 18.1414 94.3024 17.8129C94.2841 17.4844 94.2111 17.1741 94.0469 16.8821ZM93.0248 19.1087L92.3678 18.1049H91.948V19.1087H91.5647V16.5719H92.605C92.8241 16.5719 93.0248 16.6449 93.1891 16.7909C93.3533 16.9369 93.4446 17.1194 93.4446 17.3384C93.4446 17.5027 93.4081 17.6487 93.3168 17.7582C93.2438 17.8677 93.1526 17.9589 93.0431 18.0137C92.9336 18.0684 92.8606 18.0867 92.7876 18.0867L93.4628 19.0905H93.0248V19.1087ZM92.9336 17.0099C92.8423 16.9186 92.7328 16.8821 92.6233 16.8821H91.9663V17.7764H92.6233C92.7328 17.7764 92.8423 17.7399 92.9336 17.6487C93.0248 17.5757 93.0796 17.4661 93.0796 17.3384C93.0613 17.2106 93.0248 17.1011 92.9336 17.0099Z" fill="#0C0C0C"/>
<path d="M76.2526 19.784H79.9028V13.6335C79.9028 10.7316 80.5233 9.70951 82.2754 9.70951C83.8268 9.70951 84.3378 10.6221 84.3378 13.2502V19.784H87.988V13.0494C87.988 11.0783 87.8055 9.81901 87.3857 8.94297C86.7469 7.55589 85.3963 6.82585 83.48 6.82585C81.9104 6.82585 80.7606 7.26388 79.8846 8.19468V0H76.2344V19.784H76.2526Z" fill="#0C0C0C"/>
<path d="M63.6045 18.981C64.9733 19.784 66.3604 20.1126 68.3497 20.1126C71.8904 20.1126 73.6243 18.7985 73.6243 16.1339C73.6243 14.911 73.241 13.9437 72.4562 13.3415C71.8174 12.7939 71.3976 12.5932 69.6456 11.9909C67.711 11.3156 67.4189 11.1148 67.4189 10.4213C67.4189 9.72777 67.9665 9.36275 68.952 9.36275C69.9558 9.36275 70.8684 9.67302 71.9452 10.4031L73.168 8.10343C71.8539 7.22739 70.4486 6.80762 68.7513 6.80762C65.8311 6.80762 64.152 8.19469 64.152 10.5856C64.152 12.4654 65.2106 13.6882 67.5284 14.4548C69.4995 15.0935 69.4996 15.0935 69.8463 15.3308C70.1383 15.5316 70.2843 15.8783 70.2843 16.2616C70.2843 17.1377 69.6091 17.5574 68.222 17.5574C66.9262 17.5574 65.8494 17.2472 64.8091 16.5536L63.6045 18.981Z" fill="#0C0C0C"/>
<path d="M61.8341 14.3453C61.8889 13.8343 61.8889 13.5423 61.8889 13.232C61.8889 9.0708 59.7535 6.82593 55.8113 6.82593C51.9056 6.82593 49.6973 9.23505 49.6973 13.4693C49.6973 17.886 51.9969 20.1309 56.5414 20.1309C58.5307 20.1309 60.0091 19.8024 61.5604 19.0176L60.4836 16.4807C59.352 17.156 58.1292 17.4662 56.7421 17.4662C54.4973 17.4662 53.2745 16.3894 53.2745 14.3453H61.8341ZM53.2927 12.0092C53.3657 10.2206 54.2783 9.28981 55.9026 9.28981C57.5634 9.28981 58.33 10.1476 58.403 12.0092H53.2927Z" fill="#0C0C0C"/>
<path d="M28.0518 19.7839H31.7019V13.6698C31.7019 10.7314 32.2677 9.69114 33.8738 9.69114C35.2426 9.69114 35.6807 10.5672 35.6807 13.2318V19.8022H39.3308V13.6333C39.3308 10.7679 39.9331 9.70939 41.5027 9.70939C42.8715 9.70939 43.3096 10.5854 43.3096 13.2501V19.8204H46.9597V13.0858C46.9597 11.1147 46.7772 9.83715 46.4122 8.9611C45.8099 7.57403 44.5324 6.84399 42.7255 6.84399C40.9369 6.84399 39.7871 7.39152 38.7286 8.72384C38.0898 7.46453 36.9217 6.84399 35.1331 6.84399C33.5088 6.84399 32.5232 7.28202 31.5377 8.41358L31.3369 7.17251H28.0883V19.7839H28.0518Z" fill="#0C0C0C"/>
<path d="M4.83643 11.8632L8.39536 15.2396L14.8744 8.03052" stroke="#FAFAFA" stroke-width="7.2" stroke-linecap="round"/>
<path fill-rule="evenodd" clip-rule="evenodd" d="M9.49049 0.693604C9.36274 0.693604 9.23498 0.730105 9.12548 0.784858L0.693536 4.23429C0.273764 4.39855 0 4.80007 0 5.25634V13.0495C0.255513 15.6411 2.50038 21.6457 9.49049 24.0001C16.4806 21.6457 18.7255 15.6411 18.981 13.0495V5.25634C18.981 4.81832 18.7072 4.39855 18.2875 4.23429L9.85551 0.784858C9.72776 0.730105 9.61825 0.711854 9.49049 0.693604ZM15.6958 8.92478C16.1521 8.41376 16.0973 7.64722 15.5681 7.20919C15.0388 6.77117 14.254 6.82592 13.7977 7.33695L8.39544 13.4328L5.58479 10.8959C5.07376 10.4396 4.28897 10.4579 3.81445 10.9506C3.33992 11.4434 3.37643 12.21 3.8692 12.6662L7.42814 15.8966C8.04867 16.4624 9.03422 16.4077 9.6 15.7871L15.6958 8.92478Z" fill="#0043F1"/>
<path fill-rule="evenodd" clip-rule="evenodd" d="M9.49049 0.711914C9.36274 0.711914 9.23498 0.748416 9.12548 0.803169L0.693536 4.23435C0.273764 4.39861 0 4.80013 0 5.2564V13.0496C0.255513 15.6412 2.50038 21.6458 9.49049 24.0001V15.9332C8.92472 16.4442 8.03042 16.4625 7.44639 15.9332L3.88745 12.7028C3.37643 12.2465 3.35818 11.48 3.8327 10.9872C4.30722 10.4944 5.09201 10.4762 5.60304 10.9324L8.39544 13.4328L9.49049 12.1918V0.711914Z" fill="url(#paint0_linear_2022_2222)"/>
<defs>
<linearGradient id="paint0_linear_2022_2222" x1="0.121149" y1="5.0415" x2="13.0108" y2="16.0868" gradientUnits="userSpaceOnUse">
<stop stop-color="#CBDFFE"/>
<stop offset="0.19" stop-color="#98BDFD"/>
<stop offset="0.39" stop-color="#6496FA"/>
<stop offset="0.58" stop-color="#3D76F6"/>
<stop offset="0.805" stop-color="#0043F1"/>
<stop offset="0.9948" stop-color="#0043F1"/>
</linearGradient>
</defs>
</svg>
