<?xml version="1.0" encoding="UTF-8" standalone="no" ?>
<!DOCTYPE svg PUBLIC "-//W3C//DTD SVG 1.1//EN" "http://www.w3.org/Graphics/SVG/1.1/DTD/svg11.dtd">
<svg xmlns="http://www.w3.org/2000/svg" xmlns:xlink="http://www.w3.org/1999/xlink" version="1.1" width="1080" height="1080" viewBox="0 0 1080 1080" xml:space="preserve">
<desc>Created with Fabric.js 5.2.4</desc>
<defs>
</defs>
<rect x="0" y="0" width="100%" height="100%" fill="transparent"></rect>
<g transform="matrix(1 0 0 1 540 540)" id="4b440939-d009-446c-b486-c57894649a30"  >
<rect style="stroke: none; stroke-width: 1; stroke-dasharray: none; stroke-linecap: butt; stroke-dashoffset: 0; stroke-linejoin: miter; stroke-miterlimit: 4; fill: rgb(255,255,255); fill-rule: nonzero; opacity: 1; visibility: hidden;" vector-effect="non-scaling-stroke"  x="-540" y="-540" rx="0" ry="0" width="1080" height="1080" />
</g>
<g transform="matrix(1 0 0 1 540 540)" id="980ea523-a764-432f-85bd-c8b1a9206f6b"  >
</g>
<g transform="matrix(1.67 0 0 1.67 540 540)" id="path6381"  >
<path style="stroke: rgb(0,0,0); stroke-width: 0; stroke-dasharray: none; stroke-linecap: butt; stroke-dashoffset: 0; stroke-linejoin: miter; stroke-miterlimit: 4; fill: rgb(255,255,255); fill-rule: nonzero; opacity: 1;" vector-effect="non-scaling-stroke"  transform=" translate(4444.6, 97.67)" d="M -4444.7261 117.03181 C -4562.0873 117.03181 -4659.4279 19.69117399999999 -4659.4279 -97.670476 C -4659.4279 -103.77319 -4659.1476999999995 -109.82011999999999 -4658.6311 -115.80331999999999 L -4478.984299999999 -104.59380999999999 L -4556.6855 -50.91225199999999 C -4557.737499999999 -50.171351999999985 -4558.430899999999 -48.95239499999999 -4558.430899999999 -47.57408499999999 C -4558.430899999999 -45.32739399999999 -4556.6059 -43.50298499999999 -4554.359199999999 -43.50298499999999 L -4237.106299999999 -43.50298499999999 C -4261.501299999999 48.18904900000002 -4346.030999999998 117.03181000000001 -4444.726099999999 117.03181000000001 M -4444.726099999999 -312.38075 C -4327.364099999999 -312.38075 -4230.023399999999 -215.03214999999997 -4230.023399999999 -97.67047599999998 C -4230.023399999999 -91.61557399999998 -4230.290499999999 -85.60847499999998 -4230.803999999999 -79.66507399999998 L -4410.276699999999 -91.07381999999998 L -4332.398999999999 -144.43669 C -4331.339899999999 -145.17763 -4330.6548999999995 -146.39655 -4330.6548999999995 -147.77485 C -4330.6548999999995 -150.02155 -4332.4712 -151.84599999999998 -4334.709599999999 -151.84599999999998 L -4652.345499999999 -151.84599999999998 C -4627.9423 -243.53798999999998 -4543.4212 -312.38075 -4444.7261 -312.38075 M -4136.8018999999995 -73.68986299999997 L -4195.5421 -77.42634899999997 C -4195.0071 -84.10268299999997 -4194.722199999999 -90.85869399999997 -4194.722199999999 -97.67047599999998 C -4194.722199999999 -235.74631999999997 -4306.65 -347.67447 -4444.726099999999 -347.67447 C -4564.1907999999985 -347.67447 -4664.073099999999 -263.86976 -4688.818399999999 -151.84599999999998 L -4734.947299999999 -151.84599999999998 C -4737.966699999999 -151.84599999999998 -4740.667799999999 -150.41190999999998 -4742.380399999999 -148.18115999999998 L -4756.107899999999 -129.22768999999997 C -4756.725999999999 -128.43101999999996 -4757.095499999999 -127.43510999999997 -4757.095499999999 -126.35160999999997 C -4757.095499999999 -123.75437999999997 -4754.9998 -121.65907999999996 -4752.402499999999 -121.65907999999996 L -4693.893099999999 -118.01016999999996 C -4694.4351 -111.30196999999995 -4694.721799999999 -104.52209999999997 -4694.721799999999 -97.67047599999995 C -4694.721799999999 40.39733600000005 -4582.7939 152.32553000000004 -4444.726099999999 152.32553000000004 C -4325.260899999999 152.32553000000004 -4225.378999999999 68.52082000000004 -4200.625199999999 -43.50298499999997 L -4154.265399999998 -43.50298499999997 C -4151.238199999998 -43.50298499999997 -4148.545399999998 -44.937023999999965 -4146.831899999998 -47.16778099999997 L -4133.096999999998 -66.12124299999996 C -4132.478899999998 -66.91791699999996 -4132.108999999998 -67.91382399999996 -4132.108999999998 -68.99733199999996 C -4132.108999999998 -71.59455599999995 -4134.212499999998 -73.68986299999996 -4136.801899999998 -73.68986299999996" stroke-linecap="round" />
</g>
</svg>