<?xml version="1.0" standalone="no"?>
<!DOCTYPE svg PUBLIC "-//W3C//DTD SVG 20010904//EN"
 "http://www.w3.org/TR/2001/REC-SVG-20010904/DTD/svg10.dtd">
<svg version="1.0" xmlns="http://www.w3.org/2000/svg"
 width="1024.000000pt" height="1024.000000pt" viewBox="0 0 1024.000000 1024.000000"
 preserveAspectRatio="xMidYMid meet">

<g transform="translate(0.000000,1024.000000) scale(0.100000,-0.100000)"
fill="#ffffff" stroke="none">
<path d="M6012 8074 c-466 -50 -907 -176 -1297 -369 -515 -255 -929 -609
-1511 -1290 -652 -763 -1013 -1393 -1141 -1991 -26 -121 -27 -144 -28 -384 0
-214 3 -268 19 -335 23 -100 72 -207 120 -262 52 -59 147 -120 230 -146 103
-32 282 -30 418 6 118 31 266 93 370 155 214 127 540 469 786 824 67 98 98
122 126 99 10 -8 16 -46 21 -119 26 -443 81 -767 180 -1068 99 -300 220 -515
391 -694 239 -249 494 -350 879 -350 278 0 616 76 898 201 569 254 937 765
937 1301 0 199 -50 358 -140 442 -77 72 -258 156 -866 401 -769 310 -1080 458
-1257 598 -26 20 -37 36 -35 51 4 26 20 29 253 51 898 87 1815 497 2391 1070
223 222 365 438 424 645 30 105 38 291 16 384 -36 152 -141 298 -299 417 -92
68 -296 172 -432 219 -197 68 -472 127 -704 150 -142 14 -600 11 -749 -6z
m533 -1219 c214 -32 264 -108 131 -200 -212 -146 -794 -261 -1188 -235 -254
17 -360 81 -287 174 57 73 311 170 594 227 224 44 574 60 750 34z"/>
</g>
</svg>
